<mxfile host="65bd71144e">
    <diagram id="C5RBs43oDa-KdzZeNtuy" name="Page-1">
        <mxGraphModel dx="974" dy="563" grid="1" gridSize="10" guides="1" tooltips="1" connect="1" arrows="1" fold="1" page="1" pageScale="1" pageWidth="827" pageHeight="1169" background="#ffffff" math="0" shadow="0">
            <root>
                <mxCell id="WIyWlLk6GJQsqaUBKTNV-0"/>
                <mxCell id="WIyWlLk6GJQsqaUBKTNV-1" parent="WIyWlLk6GJQsqaUBKTNV-0"/>
                <mxCell id="9v7eVR0qD3crne4uchCQ-7" style="edgeStyle=none;curved=1;rounded=0;orthogonalLoop=1;jettySize=auto;html=1;fontSize=12;startSize=8;endSize=8;" parent="WIyWlLk6GJQsqaUBKTNV-1" source="WIyWlLk6GJQsqaUBKTNV-3" target="9v7eVR0qD3crne4uchCQ-5" edge="1">
                    <mxGeometry relative="1" as="geometry"/>
                </mxCell>
                <mxCell id="WIyWlLk6GJQsqaUBKTNV-3" value="&lt;font face=&quot;Lucida Console&quot; style=&quot;font-size: 14px;&quot;&gt;Start&amp;nbsp;&lt;/font&gt;" style="rounded=1;whiteSpace=wrap;html=1;fontSize=12;glass=0;strokeWidth=1;shadow=0;" parent="WIyWlLk6GJQsqaUBKTNV-1" vertex="1">
                    <mxGeometry x="368" y="55" width="120" height="50" as="geometry"/>
                </mxCell>
                <mxCell id="WIyWlLk6GJQsqaUBKTNV-5" value="" style="edgeStyle=orthogonalEdgeStyle;rounded=0;html=1;jettySize=auto;orthogonalLoop=1;fontSize=11;endArrow=block;endFill=0;endSize=8;strokeWidth=1;shadow=0;labelBackgroundColor=none;entryX=1;entryY=0.5;entryDx=0;entryDy=0;exitX=1;exitY=0.5;exitDx=0;exitDy=0;" parent="WIyWlLk6GJQsqaUBKTNV-1" source="WIyWlLk6GJQsqaUBKTNV-6" target="9v7eVR0qD3crne4uchCQ-5" edge="1">
                    <mxGeometry y="10" relative="1" as="geometry">
                        <mxPoint as="offset"/>
                        <mxPoint x="490" y="290" as="sourcePoint"/>
                        <mxPoint x="510" y="180" as="targetPoint"/>
                        <Array as="points">
                            <mxPoint x="580" y="290"/>
                            <mxPoint x="580" y="165"/>
                        </Array>
                    </mxGeometry>
                </mxCell>
                <mxCell id="11" value="&lt;font face=&quot;Lucida Console&quot; style=&quot;font-size: 14px;&quot;&gt;no&lt;/font&gt;" style="edgeLabel;html=1;align=center;verticalAlign=middle;resizable=0;points=[];" parent="WIyWlLk6GJQsqaUBKTNV-5" vertex="1" connectable="0">
                    <mxGeometry x="0.0091" y="2" relative="1" as="geometry">
                        <mxPoint y="1" as="offset"/>
                    </mxGeometry>
                </mxCell>
                <mxCell id="9v7eVR0qD3crne4uchCQ-9" style="edgeStyle=none;curved=1;rounded=0;orthogonalLoop=1;jettySize=auto;html=1;entryX=0.5;entryY=0;entryDx=0;entryDy=0;fontSize=12;startSize=8;endSize=8;" parent="WIyWlLk6GJQsqaUBKTNV-1" source="WIyWlLk6GJQsqaUBKTNV-6" target="0" edge="1">
                    <mxGeometry relative="1" as="geometry">
                        <mxPoint x="428" y="375" as="targetPoint"/>
                    </mxGeometry>
                </mxCell>
                <mxCell id="9v7eVR0qD3crne4uchCQ-10" value="&lt;font face=&quot;Lucida Console&quot; style=&quot;font-size: 14px;&quot;&gt;yes&lt;/font&gt;" style="edgeLabel;html=1;align=center;verticalAlign=middle;resizable=0;points=[];fontSize=12;" parent="9v7eVR0qD3crne4uchCQ-9" vertex="1" connectable="0">
                    <mxGeometry x="-0.3048" y="2" relative="1" as="geometry">
                        <mxPoint as="offset"/>
                    </mxGeometry>
                </mxCell>
                <mxCell id="WIyWlLk6GJQsqaUBKTNV-6" value="&lt;font face=&quot;Lucida Console&quot; style=&quot;font-size: 14px;&quot;&gt;Apakah gambar sesuai?&lt;/font&gt;" style="rhombus;whiteSpace=wrap;html=1;shadow=0;fontFamily=Helvetica;fontSize=12;align=center;strokeWidth=1;spacing=6;spacingTop=-4;" parent="WIyWlLk6GJQsqaUBKTNV-1" vertex="1">
                    <mxGeometry x="368" y="240" width="120" height="100" as="geometry"/>
                </mxCell>
                <mxCell id="9v7eVR0qD3crne4uchCQ-6" style="edgeStyle=none;curved=1;rounded=0;orthogonalLoop=1;jettySize=auto;html=1;fontSize=12;startSize=8;endSize=8;" parent="WIyWlLk6GJQsqaUBKTNV-1" source="9v7eVR0qD3crne4uchCQ-5" target="WIyWlLk6GJQsqaUBKTNV-6" edge="1">
                    <mxGeometry relative="1" as="geometry"/>
                </mxCell>
                <mxCell id="9v7eVR0qD3crne4uchCQ-5" value="&lt;font face=&quot;Lucida Console&quot; style=&quot;font-size: 14px;&quot;&gt;Ambil/input gambar&lt;/font&gt;" style="shape=parallelogram;perimeter=parallelogramPerimeter;whiteSpace=wrap;html=1;fixedSize=1;" parent="WIyWlLk6GJQsqaUBKTNV-1" vertex="1">
                    <mxGeometry x="355" y="135" width="146" height="60" as="geometry"/>
                </mxCell>
                <mxCell id="9v7eVR0qD3crne4uchCQ-12" style="edgeStyle=none;curved=1;rounded=0;orthogonalLoop=1;jettySize=auto;html=1;fontSize=12;startSize=8;endSize=8;exitX=0.5;exitY=1;exitDx=0;exitDy=0;entryX=0.5;entryY=0;entryDx=0;entryDy=0;" parent="WIyWlLk6GJQsqaUBKTNV-1" source="0" target="2" edge="1">
                    <mxGeometry relative="1" as="geometry">
                        <mxPoint x="450" y="500" as="sourcePoint"/>
                        <mxPoint x="426.67999999999984" y="535" as="targetPoint"/>
                    </mxGeometry>
                </mxCell>
                <mxCell id="9v7eVR0qD3crne4uchCQ-19" style="edgeStyle=none;curved=1;rounded=0;orthogonalLoop=1;jettySize=auto;html=1;fontSize=12;startSize=8;endSize=8;exitX=0.5;exitY=1;exitDx=0;exitDy=0;" parent="WIyWlLk6GJQsqaUBKTNV-1" source="9v7eVR0qD3crne4uchCQ-13" target="9v7eVR0qD3crne4uchCQ-18" edge="1">
                    <mxGeometry relative="1" as="geometry">
                        <mxPoint x="227.5" y="865.0000000000002" as="sourcePoint"/>
                    </mxGeometry>
                </mxCell>
                <mxCell id="9v7eVR0qD3crne4uchCQ-20" value="&lt;font style=&quot;font-size: 14px;&quot; face=&quot;Lucida Console&quot;&gt;no&lt;/font&gt;" style="edgeLabel;html=1;align=center;verticalAlign=middle;resizable=0;points=[];fontSize=12;" parent="9v7eVR0qD3crne4uchCQ-19" vertex="1" connectable="0">
                    <mxGeometry x="-0.5074" y="3" relative="1" as="geometry">
                        <mxPoint as="offset"/>
                    </mxGeometry>
                </mxCell>
                <mxCell id="9v7eVR0qD3crne4uchCQ-13" value="&lt;font face=&quot;Lucida Console&quot; style=&quot;font-size: 14px;&quot;&gt;Cek Status Kesehatan&lt;/font&gt;" style="rhombus;whiteSpace=wrap;html=1;" parent="WIyWlLk6GJQsqaUBKTNV-1" vertex="1">
                    <mxGeometry x="368" y="590" width="120" height="120" as="geometry"/>
                </mxCell>
                <mxCell id="9v7eVR0qD3crne4uchCQ-15" value="&lt;font face=&quot;Lucida Console&quot; style=&quot;font-size: 14px;&quot;&gt;tampilkan status sehat&lt;/font&gt;" style="shape=parallelogram;perimeter=parallelogramPerimeter;whiteSpace=wrap;html=1;fixedSize=1;" parent="WIyWlLk6GJQsqaUBKTNV-1" vertex="1">
                    <mxGeometry x="560" y="610" width="160" height="80" as="geometry"/>
                </mxCell>
                <mxCell id="9v7eVR0qD3crne4uchCQ-16" style="edgeStyle=none;curved=1;rounded=0;orthogonalLoop=1;jettySize=auto;html=1;fontSize=12;startSize=8;endSize=8;entryX=0;entryY=0.5;entryDx=0;entryDy=0;exitX=1;exitY=0.5;exitDx=0;exitDy=0;" parent="WIyWlLk6GJQsqaUBKTNV-1" source="9v7eVR0qD3crne4uchCQ-13" target="9v7eVR0qD3crne4uchCQ-15" edge="1">
                    <mxGeometry relative="1" as="geometry">
                        <mxPoint x="287.5" y="805.0000000000002" as="sourcePoint"/>
                        <mxPoint x="337.5" y="805" as="targetPoint"/>
                    </mxGeometry>
                </mxCell>
                <mxCell id="9v7eVR0qD3crne4uchCQ-17" value="&lt;font face=&quot;Lucida Console&quot; style=&quot;font-size: 14px;&quot;&gt;yes&lt;/font&gt;" style="edgeLabel;html=1;align=center;verticalAlign=middle;resizable=0;points=[];fontSize=12;" parent="9v7eVR0qD3crne4uchCQ-16" vertex="1" connectable="0">
                    <mxGeometry x="-0.3963" y="-1" relative="1" as="geometry">
                        <mxPoint as="offset"/>
                    </mxGeometry>
                </mxCell>
                <mxCell id="5" style="edgeStyle=none;html=1;entryX=0.5;entryY=0;entryDx=0;entryDy=0;" parent="WIyWlLk6GJQsqaUBKTNV-1" source="9v7eVR0qD3crne4uchCQ-18" target="4" edge="1">
                    <mxGeometry relative="1" as="geometry"/>
                </mxCell>
                <mxCell id="9v7eVR0qD3crne4uchCQ-18" value="&lt;font face=&quot;Lucida Console&quot; style=&quot;font-size: 14px;&quot;&gt;tampilkan kemungkinan penyakit &amp;amp; rekomendasi.&lt;/font&gt;" style="shape=parallelogram;perimeter=parallelogramPerimeter;whiteSpace=wrap;html=1;fixedSize=1;" parent="WIyWlLk6GJQsqaUBKTNV-1" vertex="1">
                    <mxGeometry x="335.5" y="770" width="185" height="80" as="geometry"/>
                </mxCell>
                <mxCell id="9v7eVR0qD3crne4uchCQ-28" value="&lt;font face=&quot;Lucida Console&quot; style=&quot;font-size: 14px;&quot;&gt;End&lt;/font&gt;" style="rounded=1;whiteSpace=wrap;html=1;fontSize=12;glass=0;strokeWidth=1;shadow=0;" parent="WIyWlLk6GJQsqaUBKTNV-1" vertex="1">
                    <mxGeometry x="368" y="1090" width="120" height="50" as="geometry"/>
                </mxCell>
                <mxCell id="0" value="&lt;font face=&quot;Lucida Console&quot; style=&quot;font-size: 14px;&quot;&gt;Preprocessing Gambar (Resize &amp;amp; normalisasi )&lt;/font&gt;" style="rounded=0;whiteSpace=wrap;html=1;" parent="WIyWlLk6GJQsqaUBKTNV-1" vertex="1">
                    <mxGeometry x="349" y="390" width="152" height="60" as="geometry"/>
                </mxCell>
                <mxCell id="3" style="edgeStyle=none;html=1;" parent="WIyWlLk6GJQsqaUBKTNV-1" source="2" target="9v7eVR0qD3crne4uchCQ-13" edge="1">
                    <mxGeometry relative="1" as="geometry"/>
                </mxCell>
                <mxCell id="2" value="&lt;li class=&quot;&quot; data-end=&quot;1057&quot; data-start=&quot;1018&quot;&gt;&lt;p class=&quot;&quot; data-end=&quot;1057&quot; data-start=&quot;1021&quot;&gt;&lt;span data-end=&quot;1057&quot; data-start=&quot;1021&quot;&gt;&lt;font face=&quot;Lucida Console&quot; style=&quot;font-size: 14px;&quot;&gt;Analisis Gambar dengan CNN + SVM&lt;/font&gt;&lt;/span&gt;&lt;/p&gt;&lt;/li&gt;" style="rounded=0;whiteSpace=wrap;html=1;" parent="WIyWlLk6GJQsqaUBKTNV-1" vertex="1">
                    <mxGeometry x="349" y="490" width="152" height="60" as="geometry"/>
                </mxCell>
                <mxCell id="8" style="edgeStyle=none;html=1;entryX=0.5;entryY=0;entryDx=0;entryDy=0;" parent="WIyWlLk6GJQsqaUBKTNV-1" source="4" target="9v7eVR0qD3crne4uchCQ-28" edge="1">
                    <mxGeometry relative="1" as="geometry"/>
                </mxCell>
                <mxCell id="10" value="&lt;font face=&quot;Lucida Console&quot; style=&quot;font-size: 14px;&quot;&gt;no&lt;/font&gt;" style="edgeLabel;html=1;align=center;verticalAlign=middle;resizable=0;points=[];" parent="8" vertex="1" connectable="0">
                    <mxGeometry x="-0.3444" y="-4" relative="1" as="geometry">
                        <mxPoint as="offset"/>
                    </mxGeometry>
                </mxCell>
                <mxCell id="4" value="&lt;font face=&quot;Lucida Console&quot; style=&quot;font-size: 14px;&quot;&gt;Apakah user ingin menyimpan hasil diagnosis?&lt;/font&gt;" style="rhombus;whiteSpace=wrap;html=1;" parent="WIyWlLk6GJQsqaUBKTNV-1" vertex="1">
                    <mxGeometry x="362" y="900" width="132" height="130" as="geometry"/>
                </mxCell>
                <mxCell id="6" value="&lt;font face=&quot;Lucida Console&quot; style=&quot;font-size: 14px;&quot;&gt;simpan ke database&lt;/font&gt;" style="shape=cylinder3;whiteSpace=wrap;html=1;boundedLbl=1;backgroundOutline=1;size=15;" parent="WIyWlLk6GJQsqaUBKTNV-1" vertex="1">
                    <mxGeometry x="610" y="915" width="60" height="100" as="geometry"/>
                </mxCell>
                <mxCell id="7" style="edgeStyle=none;html=1;entryX=0;entryY=0.5;entryDx=0;entryDy=0;entryPerimeter=0;" parent="WIyWlLk6GJQsqaUBKTNV-1" source="4" target="6" edge="1">
                    <mxGeometry relative="1" as="geometry"/>
                </mxCell>
                <mxCell id="9" value="&lt;font face=&quot;Lucida Console&quot; style=&quot;font-size: 14px;&quot;&gt;yes&lt;/font&gt;" style="edgeLabel;html=1;align=center;verticalAlign=middle;resizable=0;points=[];" parent="7" vertex="1" connectable="0">
                    <mxGeometry x="-0.3333" y="5" relative="1" as="geometry">
                        <mxPoint as="offset"/>
                    </mxGeometry>
                </mxCell>
                <mxCell id="12" value="Flowchart sistem" style="shape=umlFrame;whiteSpace=wrap;html=1;pointerEvents=0;recursiveResize=0;container=1;collapsible=0;width=160;" parent="WIyWlLk6GJQsqaUBKTNV-1" vertex="1">
                    <mxGeometry x="190" y="40" width="540" height="1120" as="geometry"/>
                </mxCell>
            </root>
        </mxGraphModel>
    </diagram>
</mxfile>